# xmcd
#
# Track frame offsets: 
#        150
#        13212
#        27092
#        43087
#        57550
#        77252
#        92642
#        104302
#        115705
#        137287
#        152012
#        179210
#        196170
#        214320
#
# Disc length: 3032 seconds
#
# Revision: 1
# Processed by: cddbd v1.5.2PL0 Copyright (c) Steve Scherf et al.
# Submitted via: ExactAudioCopy v0.99pb5
#
DISCID=b60bd60e
DTITLE=Boogie Connection - With a view of the Blues
DYEAR=1900
DGENRE=
TTITLE0=Everyday I Have The Blues
TTITLE1=I Want To Be Loved
TTITLE2=Room With A View
TTITLE3=Fifty Dollar Boogie
TTITLE4=Dr. Feelgood
TTITLE5=Fine Brown Frame
TTITLE6=Hildchen
TTITLE7=Key To My Kingdom
TTITLE8=Someone Cares For Me
TTITLE9=Dimples
TTITLE10=Misty Blue
TTITLE11=Woke Up This Morning
TTITLE12=Don't Trust Nobody
TTITLE13=Pop's Dilemma
EXTD=
EXTT0=
EXTT1=
EXTT2=
EXTT3=
EXTT4=
EXTT5=
EXTT6=
EXTT7=
EXTT8=
EXTT9=
EXTT10=
EXTT11=
EXTT12=
EXTT13=
PLAYORDER=
